<svg width="16" height="14" viewBox="0 0 16 14" fill="none" xmlns="http://www.w3.org/2000/svg">
<path fill-rule="evenodd" clip-rule="evenodd" d="M4 6.5V9H12V6.5C12.0114 5.3263 12.8476 4.3229 14 4.1V2C14 0.89543 13.1046 0 12 0H4C2.89543 0 2 0.89543 2 2V4.1C3.15239 4.3229 3.98856 5.3263 4 6.5Z" fill="#FF3364"/>
<path fill-rule="evenodd" clip-rule="evenodd" d="M14.5 5C13.68 5.02002 13.02 5.68001 13 6.5V10H3V6.5C2.97998 5.68001 2.31999 5.02002 1.5 5C0.680009 5.02002 0.0200215 5.68001 0 6.5V14H2H4H12H14H16V6.5C15.98 5.68001 15.32 5.02002 14.5 5Z" fill="#FF3364"/>
</svg>
