<svg width="16" height="14" viewBox="0 0 16 14" fill="none" xmlns="http://www.w3.org/2000/svg">
<path fill-rule="evenodd" clip-rule="evenodd" d="M8.148 1.50074L8.31795 1.31903C10.0752 -0.438237 12.9248 -0.438237 14.6819 1.31891C16.4404 3.0762 16.4404 5.92496 14.6776 7.68652L8.34961 13.8585C8.15542 14.0479 7.84562 14.0479 7.65141 13.8585L1.31795 7.68213C-0.439316 5.92487 -0.439316 3.07529 1.31795 1.31803C3.07521 -0.439237 5.92479 -0.439237 7.68142 1.3174C7.7403 1.37606 7.79694 1.43648 7.85168 1.49893L7.9995 1.67958L8.148 1.50074ZM7.56125 2.84045C7.37842 2.50424 7.19406 2.24346 6.97495 2.02513C5.60821 0.658394 3.39179 0.658394 2.02505 2.02513C0.658316 3.39187 0.658316 5.60829 2.02059 6.97061L7.9995 12.8016L13.9751 6.97491C15.2938 5.65701 15.3409 3.55011 14.1163 2.17575L13.9749 2.02613C12.6082 0.659394 10.3918 0.659394 9.02505 2.02613C8.80634 2.24484 8.62163 2.506 8.43975 2.84045C8.25041 3.18862 7.75059 3.18862 7.56125 2.84045Z" fill="#6D6D80"/>
</svg>
