<svg width="23" height="23" viewBox="0 0 23 23" fill="none" xmlns="http://www.w3.org/2000/svg">
<g clip-path="url(#clip0)">
<path d="M14.3559 3.17688C9.64205 3.17688 6.52304 5.94688 4.93261 6.94531C6.37283 7.39152 6.81903 8.83174 6.81903 8.83174C6.81903 8.83174 2.63532 10.0113 0.21875 12.7195C4.4599 12.4235 6.81462 14.4866 6.81462 14.4866C6.81462 14.4866 6.69533 15.9003 4.92819 16.373C6.67324 17.4819 10.583 20.1415 14.3515 20.1415C19.0344 20.1415 22.8338 16.3421 22.8338 11.6592C22.8338 6.97624 19.0388 3.17688 14.3559 3.17688ZM14.3559 17.314C11.2325 17.314 8.70104 14.7826 8.70104 11.6592C8.70104 8.53574 11.2325 6.00431 14.3559 6.00431C17.4793 6.00431 20.0108 8.53574 20.0108 11.6592C20.0063 14.7826 17.4793 17.3096 14.3559 17.314Z" fill="#079D49"/>
<path d="M16.3439 13.581C16.207 13.581 16.07 13.55 15.9375 13.4794L13.4944 12.1761V8.3458C13.4944 7.86867 13.8787 7.48431 14.3559 7.48431C14.833 7.48431 15.2174 7.86867 15.2174 8.3458V11.1423L16.7503 11.9596C17.17 12.1849 17.3291 12.7062 17.1038 13.1259C16.9492 13.4175 16.6532 13.581 16.3439 13.581Z" fill="#079D49"/>
</g>
<defs>
<clipPath id="clip0">
<rect width="22.6194" height="22.6194" fill="white" transform="translate(0.21875 0.349487)"/>
</clipPath>
</defs>
</svg>
