<svg width="16" height="15" fill="none" xmlns="http://www.w3.org/2000/svg">
  <path fill-rule="evenodd" clip-rule="evenodd" d="M13 .5a.5.5 0 00-.5-.5h-9l-.09.008A.5.5 0 003.5 1h9l.09-.008A.5.5 0 0013 .5zM1.5 2h13A1.5 1.5 0 0116 3.5v10a1.5 1.5 0 01-1.5 1.5h-13A1.5 1.5 0 010 13.5v-10A1.5 1.5 0 011.5 2zm13 1h-13a.5.5 0 00-.5.5v10a.5.5 0 00.5.5h13a.5.5 0 00.5-.5v-10a.5.5 0 00-.5-.5zM5 11.5v-6a.5.5 0 01.757-.429l6 3a.5.5 0 010 .858l-6 3A.5.5 0 015 11.5zm5.528-3L6 6.383v4.233L10.528 8.5z" fill="url(#paint0_linear)"/>
  <defs>
    <linearGradient id="paint0_linear" x1="-5.254" y1="5.165" x2="4.636" y2="16.043" gradientUnits="userSpaceOnUse">
      <stop stop-color="#FF4D79"/>
      <stop offset="1" stop-color="#FF3365"/>
    </linearGradient>
  </defs>
</svg>